solid boundary_450
  facet normal 0 0 -1
    outer loop
      vertex 0 0 0
      vertex 450 100 0
      vertex 450 0 0
    endloop
  endfacet
  facet normal 0 0 -1
    outer loop
      vertex 0 0 0
      vertex 0 100 0
      vertex 450 100 0
    endloop
  endfacet
  facet normal 0 0 1
    outer loop
      vertex 0 0 100
      vertex 450 0 100
      vertex 450 100 100
    endloop
  endfacet
  facet normal 0 0 1
    outer loop
      vertex 0 0 100
      vertex 450 100 100
      vertex 0 100 100
    endloop
  endfacet
  facet normal 0 -1 0
    outer loop
      vertex 0 0 0
      vertex 450 0 0
      vertex 450 0 100
    endloop
  endfacet
  facet normal 0 -1 0
    outer loop
      vertex 0 0 0
      vertex 450 0 100
      vertex 0 0 100
    endloop
  endfacet
  facet normal 0 1 0
    outer loop
      vertex 0 100 0
      vertex 450 100 100
      vertex 450 100 0
    endloop
  endfacet
  facet normal 0 1 0
    outer loop
      vertex 0 100 0
      vertex 0 100 100
      vertex 450 100 100
    endloop
  endfacet
  facet normal -1 0 0
    outer loop
      vertex 0 0 0
      vertex 0 0 100
      vertex 0 100 100
    endloop
  endfacet
  facet normal -1 0 0
    outer loop
      vertex 0 0 0
      vertex 0 100 100
      vertex 0 100 0
    endloop
  endfacet
  facet normal 1 0 0
    outer loop
      vertex 450 0 0
      vertex 450 100 0
      vertex 450 100 100
    endloop
  endfacet
  facet normal 1 0 0
    outer loop
      vertex 450 0 0
      vertex 450 100 100
      vertex 450 0 100
    endloop
  endfacet
endsolid boundary_450
